<svg width="168" height="19" viewBox="0 0 168 19" fill="none" xmlns="http://www.w3.org/2000/svg">
<path d="M97.0156 15L97.0156 3.625L100.516 3.625C101.516 3.625 102.409 3.85156 103.195 4.30469C103.987 4.75261 104.604 5.39323 105.047 6.22656C105.49 7.05469 105.711 7.9974 105.711 9.05469L105.711 9.57813C105.711 10.6354 105.492 11.5755 105.055 12.3984C104.622 13.2214 104.01 13.8594 103.219 14.3125C102.427 14.7656 101.534 14.9948 100.539 15L97.0156 15ZM99.3594 5.52344L99.3594 13.1172L100.492 13.1172C101.409 13.1172 102.109 12.8177 102.594 12.2188C103.078 11.6198 103.326 10.763 103.336 9.64844L103.336 9.04688C103.336 7.89063 103.096 7.01563 102.617 6.42188C102.138 5.82292 101.437 5.52344 100.516 5.52344L99.3594 5.52344ZM118.766 9.57032C118.766 10.6901 118.568 11.6719 118.172 12.5156C117.776 13.3594 117.208 14.0104 116.469 14.4688C115.734 14.9271 114.891 15.1563 113.937 15.1563C112.995 15.1563 112.154 14.9297 111.414 14.4766C110.674 14.0234 110.102 13.3776 109.695 12.5391C109.289 11.6953 109.083 10.7266 109.078 9.63281L109.078 9.07031C109.078 7.95052 109.279 6.96615 109.68 6.11719C110.086 5.26302 110.656 4.60938 111.391 4.15625C112.13 3.69792 112.974 3.46875 113.922 3.46875C114.87 3.46875 115.711 3.69792 116.445 4.15625C117.185 4.60938 117.755 5.26302 118.156 6.11719C118.562 6.96615 118.766 7.94792 118.766 9.0625L118.766 9.57032ZM116.391 9.05469C116.391 7.86198 116.177 6.95573 115.75 6.33594C115.323 5.71615 114.714 5.40625 113.922 5.40625C113.135 5.40625 112.529 5.71354 112.102 6.32813C111.674 6.9375 111.458 7.83334 111.453 9.01563L111.453 9.57032C111.453 10.7318 111.667 11.6328 112.094 12.2734C112.521 12.9141 113.135 13.2344 113.937 13.2344C114.724 13.2344 115.328 12.9271 115.75 12.3125C116.172 11.6927 116.385 10.7917 116.391 9.60938L116.391 9.05469ZM131.719 15L129.375 15L124.812 7.51563L124.812 15L122.469 15L122.469 3.625L124.812 3.62501L129.383 11.125L129.383 3.62501L131.719 3.62501L131.719 15ZM142.328 12.6563L138.219 12.6563L137.437 15L134.945 15L139.18 3.62501L141.352 3.62501L145.609 15L143.117 15L142.328 12.6563ZM138.852 10.7578L141.695 10.7578L140.266 6.50001L138.852 10.7578ZM156.297 5.52345L152.812 5.52345L152.812 15L150.469 15L150.469 5.52345L147.031 5.52345L147.031 3.62501L156.297 3.62501L156.297 5.52345ZM166.484 10.0703L161.984 10.0703L161.984 13.1172L167.266 13.1172L167.266 15L159.641 15L159.641 3.62501L167.25 3.62501L167.25 5.52345L161.984 5.52345L161.984 8.23439L166.484 8.23439L166.484 10.0703Z" fill="#1D2130"/>
<path d="M0 9.5H72" stroke="#1D2130" stroke-width="2"/>
</svg>
