<svg width="100" height="20" viewBox="0 0 100 20" fill="none" xmlns="http://www.w3.org/2000/svg">
<g opacity="0.8">
<g clip-path="url(#clip0_613_109)">
<path d="M20 9.99512C20 4.47227 15.5229 -0.00488281 10 -0.00488281C4.47715 -0.00488281 0 4.47227 0 9.99512C0 14.9863 3.65684 19.1234 8.4375 19.8736V12.8857H5.89844V9.99512H8.4375V7.79199C8.4375 5.28574 9.93047 3.90137 12.2146 3.90137C13.3084 3.90137 14.4531 4.09668 14.4531 4.09668V6.55762H13.1922C11.95 6.55762 11.5625 7.32852 11.5625 8.12012V9.99512H14.3359L13.8926 12.8857H11.5625V19.8736C16.3432 19.1234 20 14.9863 20 9.99512Z" fill="#1D2130"/>
</g>
<g clip-path="url(#clip1_613_109)">
<path d="M46.2918 18.1202C53.8371 18.1202 57.9652 11.8675 57.9652 6.44677C57.9652 6.27099 57.9613 6.0913 57.9535 5.91552C58.7566 5.33477 59.4496 4.61543 60 3.7913C59.2521 4.12405 58.458 4.34137 57.6449 4.43583C58.5011 3.92264 59.1421 3.11645 59.4492 2.16669C58.6438 2.64402 57.763 2.98073 56.8445 3.1624C56.2257 2.50485 55.4075 2.06948 54.5164 1.9236C53.6253 1.77771 52.711 1.92943 51.9148 2.3553C51.1186 2.78117 50.4848 3.45747 50.1115 4.27965C49.7382 5.10182 49.6462 6.02407 49.8496 6.9038C48.2187 6.82196 46.6233 6.39831 45.1667 5.6603C43.71 4.9223 42.4247 3.88642 41.3941 2.61982C40.8703 3.52292 40.71 4.59159 40.9459 5.60863C41.1817 6.62567 41.7959 7.51476 42.6637 8.09521C42.0122 8.07452 41.375 7.89912 40.8047 7.58349V7.63427C40.8041 8.58201 41.1317 9.50071 41.7319 10.2342C42.3321 10.9677 43.1678 11.4707 44.0969 11.6577C43.4934 11.8228 42.86 11.8469 42.2457 11.728C42.5079 12.5431 43.018 13.256 43.7048 13.7672C44.3916 14.2784 45.2209 14.5624 46.077 14.5796C44.6237 15.7211 42.8285 16.3403 40.9805 16.3374C40.6527 16.3369 40.3253 16.3168 40 16.2772C41.8774 17.4817 44.0613 18.1214 46.2918 18.1202Z" fill="#1D2130"/>
</g>
<g clip-path="url(#clip2_613_109)">
<path d="M98.5195 -0.00488281H81.4766C80.6602 -0.00488281 80 0.639648 80 1.43652V18.5498C80 19.3467 80.6602 19.9951 81.4766 19.9951H98.5195C99.3359 19.9951 100 19.3467 100 18.5537V1.43652C100 0.639648 99.3359 -0.00488281 98.5195 -0.00488281ZM85.9336 17.0381H82.9648V7.49121H85.9336V17.0381ZM84.4492 6.19043C83.4961 6.19043 82.7266 5.4209 82.7266 4.47168C82.7266 3.52246 83.4961 2.75293 84.4492 2.75293C85.3984 2.75293 86.168 3.52246 86.168 4.47168C86.168 5.41699 85.3984 6.19043 84.4492 6.19043ZM97.043 17.0381H94.0781V12.3975C94.0781 11.292 94.0586 9.86621 92.5352 9.86621C90.9922 9.86621 90.7578 11.0732 90.7578 12.3193V17.0381H87.7969V7.49121H90.6406V8.7959H90.6797C91.0742 8.0459 92.043 7.25293 93.4844 7.25293C96.4883 7.25293 97.043 9.22949 97.043 11.7998V17.0381Z" fill="#1D2130"/>
</g>
</g>
<defs>
<clipPath id="clip0_613_109">
<rect width="20" height="20" fill="white" transform="translate(0 -0.00488281)"/>
</clipPath>
<clipPath id="clip1_613_109">
<rect width="20" height="20" fill="white" transform="translate(40 -0.00488281)"/>
</clipPath>
<clipPath id="clip2_613_109">
<rect width="20" height="20" fill="white" transform="translate(80 -0.00488281)"/>
</clipPath>
</defs>
</svg>
